<?xml version="1.0" standalone="no"?>
<!DOCTYPE svg PUBLIC "-//W3C//DTD SVG 20010904//EN"
 "http://www.w3.org/TR/2001/REC-SVG-20010904/DTD/svg10.dtd">
<svg version="1.0" xmlns="http://www.w3.org/2000/svg"
 width="1280.000000pt" height="1280.000000pt" viewBox="0 0 1280.000000 1280.000000"
 preserveAspectRatio="xMidYMid meet">
<metadata>
Created by potrace 1.15, written by Peter Selinger 2001-2017
</metadata>
<g transform="translate(0.000000,1280.000000) scale(0.100000,-0.100000)"
fill="#fff" stroke="none">
<path d="M8205 12370 c-186 -40 -345 -150 -409 -286 -28 -58 -40 -70 -213
-204 -101 -79 -199 -161 -217 -184 -70 -86 -100 -185 -86 -283 12 -81 57 -229
83 -275 37 -65 57 -174 68 -368 5 -96 13 -192 18 -213 15 -64 59 -140 127
-218 139 -160 166 -271 129 -528 -33 -228 -120 -525 -313 -1063 -240 -669
-291 -1056 -196 -1496 13 -63 24 -131 24 -152 0 -44 0 -44 -135 -70 -72 -15
-106 -32 -203 -100 -134 -94 -190 -217 -178 -392 12 -171 41 -228 114 -228 49
0 83 40 123 145 38 99 72 141 147 179 110 56 142 60 442 52 151 -4 277 -10
280 -12 3 -3 7 -164 8 -358 l4 -353 -94 -35 c-51 -20 -174 -64 -273 -98 -210
-72 -391 -157 -490 -229 -67 -50 -70 -53 -70 -94 0 -42 0 -42 -75 -84 -41 -23
-84 -46 -95 -52 -57 -29 -99 -87 -119 -164 -23 -89 -40 -355 -26 -407 17 -61
50 -124 103 -195 l45 -60 16 -215 c32 -439 40 -668 41 -1180 0 -433 -3 -555
-18 -695 -39 -380 -90 -637 -188 -956 -24 -79 -38 -105 -77 -150 -27 -30 -93
-110 -149 -179 -140 -176 -171 -211 -287 -329 -121 -124 -176 -163 -339 -240
-127 -60 -189 -107 -221 -169 -12 -24 -13 -36 -2 -78 l12 -49 355 -3 c195 -1
363 0 374 2 12 3 75 57 142 119 113 107 171 147 234 162 39 9 105 -55 113
-110 14 -88 22 -109 49 -129 26 -19 42 -21 169 -21 l140 0 18 70 c11 39 37
123 59 188 70 204 74 271 21 424 -38 109 -44 171 -27 268 18 101 58 197 143
345 114 199 137 241 159 297 l23 55 6 -404 c4 -221 10 -592 14 -823 l7 -419
75 -14 c88 -15 245 -21 257 -9 4 5 9 545 10 1200 3 1374 1 1207 11 1207 25 0
528 -603 842 -1010 57 -74 117 -150 133 -169 29 -34 29 -36 22 -114 -4 -44
-15 -113 -25 -152 -19 -73 -99 -277 -129 -328 -35 -60 -222 -185 -453 -303
-142 -72 -156 -87 -165 -178 -8 -89 -42 -82 490 -96 l468 -12 24 22 c13 12 44
56 68 99 56 95 121 160 168 167 29 5 39 1 64 -26 28 -29 30 -37 30 -108 1 -42
6 -86 12 -98 25 -43 34 -45 181 -38 l140 7 7 61 c4 34 32 158 63 276 48 188
56 230 60 337 8 215 -25 295 -200 480 -123 129 -290 344 -327 419 -36 75 -128
315 -231 609 -192 543 -333 818 -538 1050 l-80 90 611 6 c337 3 880 7 1208 8
l596 1 6 -82 c4 -46 7 -254 7 -463 0 -468 17 -2151 26 -2562 l6 -303 168 0
167 0 6 762 c4 420 10 1195 13 1723 6 925 7 961 25 985 11 14 85 116 165 228
80 112 178 244 218 294 l73 90 11 147 c7 80 30 416 52 746 42 616 208 2432
317 3460 33 315 36 369 40 732 5 389 5 393 -17 427 -58 94 -157 145 -257 130
-106 -15 -224 -83 -257 -148 -12 -22 -26 -142 -51 -436 -19 -223 -46 -538 -60
-700 -63 -732 -113 -1135 -191 -1552 l-26 -137 -47 -8 c-51 -9 -197 -11 -204
-3 -2 3 -8 183 -11 400 -11 620 -18 678 -128 1045 -173 579 -438 1270 -640
1669 -113 221 -185 321 -283 390 -29 20 -29 28 0 106 16 42 16 48 1 102 -16
54 -20 59 -71 83 -30 15 -72 29 -95 32 -29 4 -46 13 -57 29 -24 38 -98 222
-178 444 -93 262 -124 339 -181 452 -170 339 -407 523 -749 582 -129 23 -382
20 -500 -4z m-537 -1543 c33 -31 58 -74 87 -150 l25 -67 -25 0 c-44 0 -91 56
-123 145 -16 44 -32 88 -37 98 -6 16 -4 16 21 7 16 -6 39 -21 52 -33z m1165
-669 c25 -19 58 -114 67 -193 5 -38 16 -90 24 -114 9 -24 16 -52 16 -62 0 -32
-54 -82 -106 -99 -32 -10 -53 -23 -61 -40 -15 -30 -16 -100 -3 -155 10 -38 7
-47 -79 -220 -98 -196 -191 -356 -279 -480 -75 -105 -244 -279 -330 -340 -65
-47 -70 -53 -76 -96 -4 -26 -2 -58 3 -72 11 -27 0 -42 -48 -67 l-24 -12 7 53
c3 30 13 167 21 304 18 294 38 488 64 640 99 566 107 598 161 692 22 38 43 59
83 82 30 17 64 31 77 31 12 0 42 -16 66 -36 58 -48 114 -56 164 -22 19 13 62
59 96 103 57 74 103 115 130 115 5 0 18 -6 27 -12z m29 -2552 c103 -44 224
-172 292 -311 36 -74 91 -233 83 -241 -2 -2 -336 -1 -743 3 l-738 8 80 47 c47
27 121 84 178 138 67 63 117 101 159 120 104 48 109 48 152 -4 21 -25 42 -46
47 -46 16 0 120 75 187 135 75 67 151 117 218 144 26 11 49 20 49 20 1 1 17
-5 36 -13z m363 -956 c96 -7 152 -15 157 -23 10 -16 9 -131 -1 -187 -8 -39
-21 -56 -94 -126 -133 -127 -315 -208 -560 -249 -112 -19 -550 -66 -556 -59
-2 2 -7 148 -9 323 l-5 320 44 4 c99 8 885 6 1024 -3z m1973 -1 c53 -6 98 -11
99 -12 1 -1 -7 -79 -18 -172 -10 -94 -19 -187 -19 -207 0 -21 -3 -38 -7 -38
-11 0 -107 174 -133 241 -22 53 -42 118 -54 172 -8 32 -9 32 132 16z"/>
</g>
</svg>
